<svg width="36" height="36" viewBox="0 0 36 36" fill="none" xmlns="http://www.w3.org/2000/svg">
<path fill-rule="evenodd" clip-rule="evenodd" d="M18 32.5C13.6584 32.5 10.7543 32.4926 8.59092 32.2017C6.5282 31.9244 5.67024 31.4484 5.11091 30.8891C4.55158 30.3298 4.07562 29.4718 3.79829 27.4091C3.50743 25.2457 3.5 22.3416 3.5 18C3.5 13.6584 3.50743 10.7543 3.79829 8.59092C4.07562 6.5282 4.55158 5.67024 5.11091 5.11091C5.67024 4.55158 6.5282 4.07562 8.59092 3.79829C10.7543 3.50743 13.6584 3.5 18 3.5C22.3416 3.5 25.2457 3.50743 27.4091 3.79829C29.4718 4.07562 30.3298 4.55158 30.8891 5.11091C31.4484 5.67024 31.9244 6.5282 32.2017 8.59092C32.4926 10.7543 32.5 13.6584 32.5 18C32.5 22.3416 32.4926 25.2457 32.2017 27.4091C31.9244 29.4718 31.4484 30.3298 30.8891 30.8891C30.3298 31.4484 29.4718 31.9244 27.4091 32.2017C25.2457 32.4926 22.3416 32.5 18 32.5ZM0 18C0 9.51472 0 5.27208 2.63604 2.63604C5.27208 0 9.51472 0 18 0C26.4853 0 30.7279 0 33.364 2.63604C36 5.27208 36 9.51472 36 18C36 26.4853 36 30.7279 33.364 33.364C30.7279 36 26.4853 36 18 36C9.51472 36 5.27208 36 2.63604 33.364C0 30.7279 0 26.4853 0 18ZM15.9513 12V21.0628C14.4119 20.5051 10.8931 18.5531 10.6732 12H7.00786C6.78794 18.9714 11.1864 25.5245 19.4701 24.9668V20.2262C20.7896 20.3192 23.7805 21.3974 25.188 24.9668H29C29 22.8754 25.9211 19.1805 23.4287 18.4137C24.9192 17.6701 27.8271 15.2068 28.2669 12H24.6016C24.064 13.5337 22.2851 16.6848 19.4701 17.0194V12H15.9513Z" fill="black"/>
</svg>
